<svg width="40" height="40" viewBox="0 0 40 40" fill="none" xmlns="http://www.w3.org/2000/svg">
<path d="M20 0C31.02 0 40 8.96 40 20C40 31.02 31.02 40 20 40C8.96 40 0 31.02 0 20C0 8.96 8.96 0 20 0ZM14.12 16.06C13.54 15.46 12.58 15.46 12 16.04C11.4 16.64 11.4 17.58 12 18.16L18.94 25.14C19.22 25.42 19.6 25.58 20 25.58C20.4 25.58 20.78 25.42 21.06 25.14L28 18.16C28.3 17.88 28.44 17.5 28.44 17.12C28.44 16.72 28.3 16.34 28 16.04C27.4 15.46 26.46 15.46 25.88 16.06L20 21.96L14.12 16.06Z" fill="black"/>
</svg>
